<svg width="51" height="59" viewBox="0 0 51 59" fill="none" xmlns="http://www.w3.org/2000/svg">
<path d="M4.09375 59C2.9375 59 2.09375 58.7344 1.5625 58.2031C1.03125 57.6719 0.765625 56.8281 0.765625 55.6719V3.17188C0.765625 2.26562 1.17188 1.59375 1.98438 1.15625C2.79688 0.6875 4.0625 0.453125 5.78125 0.453125H8.59375C10.3125 0.453125 11.5781 0.6875 12.3906 1.15625C13.2031 1.59375 13.6094 2.26562 13.6094 3.17188V48.0781H32.1719C33.0469 48.0781 33.6719 48.4062 34.0469 49.0625C34.4531 49.7188 34.6562 50.7656 34.6562 52.2031V54.8281C34.6562 56.2969 34.4531 57.3594 34.0469 58.0156C33.6719 58.6719 33.0469 59 32.1719 59H4.09375Z" fill="#0B0B0B"/>
<path d="M45.9331 59C49.311 59 51 58.1168 51 56.3504V3.31195C51 2.14488 50.7317 1.30901 50.195 0.80433C49.6583 0.26811 48.8059 0 47.6379 0H19.5097C18.6258 0 17.9944 0.331195 17.6156 0.993585C17.2052 1.65597 17 2.72841 17 4.21091V6.76584C17 8.24833 17.2052 9.32077 17.6156 9.98316C17.9944 10.6455 18.6258 10.9767 19.5097 10.9767H38.0251V23.2783H20.1253C19.2414 23.2783 18.5942 23.6095 18.1838 24.2719C17.7734 24.9342 17.5682 25.9909 17.5682 27.4419V30.0441C17.5682 31.5266 17.7734 32.6148 18.1838 33.3087C18.5942 33.9711 19.2414 34.3023 20.1253 34.3023H38.0251V56.3504C38.0251 58.1168 39.714 59 43.0919 59H45.9331Z" fill="#0B0B0B"/>
</svg>
